<svg id="svg" xmlns="http://www.w3.org/2000/svg" xmlns:xlink="http://www.w3.org/1999/xlink" width="400" height="211.54855643044618" viewBox="0, 0, 400,211.54855643044618" version="1.1"><g id="svgg"><path id="path0" d="M74.203 18.866 L 64.155 19.160 60.555 22.356 C 31.484 48.167,19.084 97.080,26.035 158.530 C 26.903 166.201,29.736 183.717,30.181 184.162 C 30.960 184.941,95.538 182.466,95.531 181.658 C 95.528 181.208,95.040 179.304,94.448 177.428 C 79.999 131.611,84.905 75.285,104.645 60.382 C 115.662 52.064,116.229 52.769,126.298 87.290 C 137.604 126.053,139.963 132.769,147.596 147.931 C 155.998 164.618,165.230 177.876,175.958 188.660 L 182.693 195.430 186.753 195.097 C 188.986 194.914,197.546 194.186,205.774 193.479 C 214.003 192.771,223.392 192.026,226.640 191.822 C 233.201 191.411,233.415 191.237,230.758 188.474 C 216.441 173.582,210.103 146.141,217.803 132.381 C 219.092 130.079,235.435 155.875,247.548 179.329 C 250.363 184.779,252.749 189.341,252.851 189.466 C 253.444 190.195,288.188 187.166,288.169 186.386 C 288.158 185.934,286.755 181.909,285.050 177.441 C 283.345 172.973,282.017 169.252,282.098 169.171 C 282.179 169.090,285.461 170.559,289.392 172.436 C 324.879 189.379,352.103 195.329,357.258 187.268 C 364.928 175.274,380.626 149.480,380.396 149.250 C 380.230 149.084,377.900 149.905,375.218 151.073 C 359.123 158.084,348.321 157.328,323.506 147.453 C 305.308 140.212,286.884 138.093,273.753 141.730 C 271.444 142.370,269.056 143.008,268.447 143.147 C 267.526 143.358,267.007 142.797,265.367 139.811 C 257.886 126.198,241.639 108.384,235.827 107.424 C 232.616 106.893,186.973 107.032,186.638 107.573 C 186.472 107.841,185.413 108.792,184.284 109.686 L 182.231 111.312 178.740 100.467 C 163.894 54.335,148.607 24.383,137.369 19.412 C 134.992 18.360,101.421 18.070,74.203 18.866 " stroke="none" fill="#000000" fill-rule="evenodd"></path></g></svg>